<svg width="32.000000" height="32.000000" viewBox="0 0 32 32" fill="none" xmlns="http://www.w3.org/2000/svg" xmlns:xlink="http://www.w3.org/1999/xlink">
	<desc>
			Created with Pixso.
	</desc>
	<defs/>
	<path id="Vector" d="M12 19.5C12.8284 19.5 13.5 18.8284 13.5 18C13.5 17.1716 12.8284 16.5 12 16.5C11.1716 16.5 10.5 17.1716 10.5 18C10.5 18.8284 11.1716 19.5 12 19.5Z" fill="#858584" fill-opacity="1.000000" fill-rule="nonzero"/>
	<path id="Vector" d="M20 19.5C20.8284 19.5 21.5 18.8284 21.5 18C21.5 17.1716 20.8284 16.5 20 16.5C19.1716 16.5 18.5 17.1716 18.5 18C18.5 18.8284 19.1716 19.5 20 19.5Z" fill="#858584" fill-opacity="1.000000" fill-rule="nonzero"/>
	<path id="Vector (Stroke)" d="M15.9926 9.99951C13.8248 9.98364 11.6678 10.3054 9.59912 10.9539C9.07211 11.1191 8.51099 10.8257 8.34579 10.2986C8.18063 9.77173 8.47397 9.21045 9.00098 9.04541C11.2656 8.33569 13.6269 7.98291 16 7.99951C18.3732 7.98291 20.7345 8.33569 22.9991 9.04541C23.5261 9.21045 23.8195 9.77173 23.6543 10.2986C23.4891 10.8257 22.928 11.1191 22.401 10.9539C20.3323 10.3054 18.1753 9.98364 16.0074 9.99951L15.9926 9.99951Z" fill="#858584" fill-opacity="1.000000" fill-rule="evenodd"/>
	<path id="Vector (Stroke)" d="M8.34579 21.7007C8.51099 21.1736 9.07211 20.8804 9.59912 21.0457C11.6678 21.6938 13.8248 22.0159 15.9926 21.9998L16.0074 21.9998C18.1753 22.0159 20.3323 21.6938 22.401 21.0457C22.928 20.8804 23.4891 21.1736 23.6543 21.7007C23.8195 22.2278 23.5261 22.7888 22.9991 22.9541C20.7345 23.6638 18.3732 24.0166 16 23.9998C13.6269 24.0166 11.2656 23.6638 9.00098 22.9541C8.47397 22.7888 8.18063 22.2278 8.34579 21.7007Z" fill="#858584" fill-opacity="1.000000" fill-rule="evenodd"/>
	<path id="Vector (Stroke)" d="M20.2199 4.81128C20.6504 4.5686 21.1551 4.49268 21.6378 4.59814C22.9554 4.88354 24.2453 5.28418 25.4928 5.79517C25.7736 5.90356 26.0258 6.07495 26.2299 6.29639C26.4361 6.52026 26.5875 6.78882 26.672 7.08105L30.9078 21.2256C31.0183 21.594 31.0208 21.9863 30.9152 22.3564C30.8095 22.7263 30.6 23.0581 30.3115 23.3125L30.3064 23.3171C28.2389 25.116 25.4375 26.4778 22.2556 27.2578C21.8136 27.3704 21.3462 27.3264 20.9327 27.1335C20.5209 26.9414 20.1881 26.6133 19.9903 26.2043L18.482 23.2129C18.2334 22.7197 18.4316 22.1184 18.9248 21.8699C19.4179 21.6211 20.0193 21.8193 20.2679 22.3125L21.7804 25.3125L21.7815 25.3147C24.7194 24.5942 27.2135 23.3572 28.9935 21.8083L29.6499 22.5627L28.9884 21.8127C28.9901 21.8113 28.9915 21.8091 28.9921 21.8069C28.9928 21.8047 28.9928 21.8022 28.9921 21.7998L24.756 7.65454C24.7524 7.65332 24.7489 7.65186 24.7454 7.65039C23.6025 7.1814 22.4205 6.81421 21.2132 6.55249L21.211 6.552C21.208 6.55151 21.2049 6.55176 21.2022 6.55347C21.1998 6.55469 21.1979 6.55688 21.1968 6.55933L20.2119 9.53906C20.0386 10.0635 19.473 10.3479 18.9486 10.1746C18.4242 10.0015 18.1396 9.43579 18.313 8.91138L19.3033 5.91528C19.4628 5.44702 19.7892 5.0542 20.2199 4.81128Z" fill="#858584" fill-opacity="1.000000" fill-rule="evenodd"/>
	<path id="Vector (Stroke)" d="M10.7977 6.55347C10.795 6.55176 10.7919 6.55151 10.7889 6.552L10.7867 6.55249C9.57941 6.81421 8.39743 7.1814 7.25452 7.65039C7.25101 7.65186 7.24747 7.65332 7.24393 7.65454L3.00793 21.7996C3.00726 21.8018 3.00714 21.8047 3.00781 21.8069C3.00839 21.8091 3.00952 21.8108 3.01102 21.8123C4.79071 23.3594 7.28311 24.595 10.2184 25.3147L10.2195 25.3125L11.732 22.3125C11.9807 21.8193 12.582 21.6211 13.0752 21.8699C13.5683 22.1184 13.7665 22.7197 13.5179 23.2129L12.0096 26.2043C11.8118 26.6133 11.479 26.9414 11.0672 27.1335C10.6537 27.3264 10.1863 27.3704 9.74432 27.2578C6.56238 26.4778 3.76102 25.116 1.69354 23.3171L1.68839 23.3125C1.3999 23.0581 1.19043 22.7263 1.08475 22.3564C0.979095 21.9866 0.981628 21.5942 1.09201 21.2258L5.32791 7.08105C5.41241 6.78882 5.56378 6.52026 5.77002 6.29639C5.97409 6.07495 6.22632 5.90356 6.50711 5.79517C7.75497 5.28418 9.04529 4.88354 10.3632 4.5979C10.8456 4.49268 11.3499 4.5686 11.78 4.81128C12.2108 5.0542 12.537 5.44702 12.6965 5.91528L12.6995 5.92383L13.687 8.91138C13.8603 9.43579 13.5757 10.0015 13.0513 10.1746C12.5269 10.3479 11.9613 10.0635 11.788 9.53906L10.8031 6.55933C10.802 6.55688 10.8001 6.55469 10.7977 6.55347Z" fill="#858584" fill-opacity="1.000000" fill-rule="evenodd"/>
	<path id="Vector" d="M12 19.5C12.8284 19.5 13.5 18.8284 13.5 18C13.5 17.1716 12.8284 16.5 12 16.5C11.1716 16.5 10.5 17.1716 10.5 18C10.5 18.8284 11.1716 19.5 12 19.5Z" fill="#858584" fill-opacity="1.000000" fill-rule="nonzero"/>
	<path id="Vector" d="M20 19.5C20.8284 19.5 21.5 18.8284 21.5 18C21.5 17.1716 20.8284 16.5 20 16.5C19.1716 16.5 18.5 17.1716 18.5 18C18.5 18.8284 19.1716 19.5 20 19.5Z" fill="#858584" fill-opacity="1.000000" fill-rule="nonzero"/>
	<path id="Vector (Stroke)" d="M15.9926 9.99951C13.8248 9.98364 11.6678 10.3054 9.59912 10.9539C9.07211 11.1191 8.51099 10.8257 8.34579 10.2986C8.18063 9.77173 8.47397 9.21045 9.00098 9.04541C11.2656 8.33569 13.6269 7.98291 16 7.99951C18.3732 7.98291 20.7345 8.33569 22.9991 9.04541C23.5261 9.21045 23.8195 9.77173 23.6543 10.2986C23.4891 10.8257 22.928 11.1191 22.401 10.9539C20.3323 10.3054 18.1753 9.98364 16.0074 9.99951L15.9926 9.99951Z" fill="#858584" fill-opacity="1.000000" fill-rule="evenodd"/>
	<path id="Vector (Stroke)" d="M8.34579 21.7007C8.51099 21.1736 9.07211 20.8804 9.59912 21.0457C11.6678 21.6938 13.8248 22.0159 15.9926 21.9998L16.0074 21.9998C18.1753 22.0159 20.3323 21.6938 22.401 21.0457C22.928 20.8804 23.4891 21.1736 23.6543 21.7007C23.8195 22.2278 23.5261 22.7888 22.9991 22.9541C20.7345 23.6638 18.3732 24.0166 16 23.9998C13.6269 24.0166 11.2656 23.6638 9.00098 22.9541C8.47397 22.7888 8.18063 22.2278 8.34579 21.7007Z" fill="#858584" fill-opacity="1.000000" fill-rule="evenodd"/>
	<path id="Vector (Stroke)" d="M20.2199 4.81128C20.6504 4.5686 21.1551 4.49268 21.6378 4.59814C22.9554 4.88354 24.2453 5.28418 25.4928 5.79517C25.7736 5.90356 26.0258 6.07495 26.2299 6.29639C26.4361 6.52026 26.5875 6.78882 26.672 7.08105L30.9078 21.2256C31.0183 21.594 31.0208 21.9863 30.9152 22.3564C30.8095 22.7263 30.6 23.0581 30.3115 23.3125L30.3064 23.3171C28.2389 25.116 25.4375 26.4778 22.2556 27.2578C21.8136 27.3704 21.3462 27.3264 20.9327 27.1335C20.5209 26.9414 20.1881 26.6133 19.9903 26.2043L18.482 23.2129C18.2334 22.7197 18.4316 22.1184 18.9248 21.8699C19.4179 21.6211 20.0193 21.8193 20.2679 22.3125L21.7804 25.3125L21.7815 25.3147C24.7194 24.5942 27.2135 23.3572 28.9935 21.8083L29.6499 22.5627L28.9884 21.8127C28.9901 21.8113 28.9915 21.8091 28.9921 21.8069C28.9928 21.8047 28.9928 21.8022 28.9921 21.7998L24.756 7.65454C24.7524 7.65332 24.7489 7.65186 24.7454 7.65039C23.6025 7.1814 22.4205 6.81421 21.2132 6.55249L21.211 6.552C21.208 6.55151 21.2049 6.55176 21.2022 6.55347C21.1998 6.55469 21.1979 6.55688 21.1968 6.55933L20.2119 9.53906C20.0386 10.0635 19.473 10.3479 18.9486 10.1746C18.4242 10.0015 18.1396 9.43579 18.313 8.91138L19.3033 5.91528C19.4628 5.44702 19.7892 5.0542 20.2199 4.81128Z" fill="#858584" fill-opacity="1.000000" fill-rule="evenodd"/>
	<path id="Vector (Stroke)" d="M10.7977 6.55347C10.795 6.55176 10.7919 6.55151 10.7889 6.552L10.7867 6.55249C9.57941 6.81421 8.39743 7.1814 7.25452 7.65039C7.25101 7.65186 7.24747 7.65332 7.24393 7.65454L3.00793 21.7996C3.00726 21.8018 3.00714 21.8047 3.00781 21.8069C3.00839 21.8091 3.00952 21.8108 3.01102 21.8123C4.79071 23.3594 7.28311 24.595 10.2184 25.3147L10.2195 25.3125L11.732 22.3125C11.9807 21.8193 12.582 21.6211 13.0752 21.8699C13.5683 22.1184 13.7665 22.7197 13.5179 23.2129L12.0096 26.2043C11.8118 26.6133 11.479 26.9414 11.0672 27.1335C10.6537 27.3264 10.1863 27.3704 9.74432 27.2578C6.56238 26.4778 3.76102 25.116 1.69354 23.3171L1.68839 23.3125C1.3999 23.0581 1.19043 22.7263 1.08475 22.3564C0.979095 21.9866 0.981628 21.5942 1.09201 21.2258L5.32791 7.08105C5.41241 6.78882 5.56378 6.52026 5.77002 6.29639C5.97409 6.07495 6.22632 5.90356 6.50711 5.79517C7.75497 5.28418 9.04529 4.88354 10.3632 4.5979C10.8456 4.49268 11.3499 4.5686 11.78 4.81128C12.2108 5.0542 12.537 5.44702 12.6965 5.91528L12.6995 5.92383L13.687 8.91138C13.8603 9.43579 13.5757 10.0015 13.0513 10.1746C12.5269 10.3479 11.9613 10.0635 11.788 9.53906L10.8031 6.55933C10.802 6.55688 10.8001 6.55469 10.7977 6.55347Z" fill="#858584" fill-opacity="1.000000" fill-rule="evenodd"/>
</svg>
