<svg width="243.413849" height="32.000000" viewBox="0 0 243.414 32" fill="none" xmlns="http://www.w3.org/2000/svg" xmlns:xlink="http://www.w3.org/1999/xlink">
	<desc>
			Created with Pixso.
	</desc>
	<defs/>
	<path id="Vector (Stroke)" d="M6 12.4502C6.55231 12.4502 7 12.8979 7 13.4502L7 26.0002L25 26.0002L25 13.4502C25 12.8979 25.4477 12.4502 26 12.4502C26.5523 12.4502 27 12.8979 27 13.4502L27 26.0002C27 26.5305 26.7893 27.0393 26.4142 27.4143C26.0391 27.7896 25.5305 28.0002 25 28.0002L7 28.0002C6.46954 28.0002 5.96088 27.7896 5.58582 27.4143C5.21069 27.0393 5 26.5305 5 26.0002L5 13.4502C5 12.8979 5.44769 12.4502 6 12.4502Z" fill="#A259FF" fill-opacity="1.000000" fill-rule="evenodd"/>
	<path id="Vector (Stroke)" d="M3 5C3 4.44775 3.44769 4 4 4L28 4C28.5523 4 29 4.44775 29 5C29 5.55225 28.5523 6 28 6L4 6C3.44769 6 3 5.55225 3 5Z" fill="#A259FF" fill-opacity="1.000000" fill-rule="evenodd"/>
	<path id="Vector (Stroke)" d="M4 7C4.55231 7 5 7.44775 5 8L5 10C5 10.7957 5.31604 11.5586 5.87866 12.1213C6.44128 12.6838 7.20435 13 8 13C8.79565 13 9.55872 12.6838 10.1213 12.1213C10.684 11.5586 11 10.7957 11 10L11 8C11 7.44775 11.4477 7 12 7C12.5523 7 13 7.44775 13 8L13 10C13 11.3262 12.4732 12.5979 11.5355 13.5356C10.5978 14.4731 9.32611 15 8 15C6.67389 15 5.40216 14.4731 4.46448 13.5356C3.52679 12.5979 3 11.3262 3 10L3 8C3 7.44775 3.44769 7 4 7Z" fill="#A259FF" fill-opacity="1.000000" fill-rule="evenodd"/>
	<path id="Vector (Stroke)" d="M12 7C12.5523 7 13 7.44775 13 8L13 10C13 10.7957 13.316 11.5586 13.8787 12.1213C14.4413 12.6838 15.2043 13 16 13C16.7957 13 17.5587 12.6838 18.1213 12.1213C18.684 11.5586 19 10.7957 19 10L19 8C19 7.44775 19.4477 7 20 7C20.5523 7 21 7.44775 21 8L21 10C21 11.3262 20.4732 12.5979 19.5355 13.5356C18.5978 14.4731 17.3261 15 16 15C14.6739 15 13.4022 14.4731 12.4645 13.5356C11.5268 12.5979 11 11.3262 11 10L11 8C11 7.44775 11.4477 7 12 7Z" fill="#A259FF" fill-opacity="1.000000" fill-rule="evenodd"/>
	<path id="Vector (Stroke)" d="M20 7C20.5523 7 21 7.44775 21 8L21 10C21 10.7957 21.3161 11.5586 21.8787 12.1213C22.4413 12.6838 23.2043 13 24 13C24.7957 13 25.5587 12.6838 26.1213 12.1213C26.684 11.5586 27 10.7957 27 10L27 8C27 7.44775 27.4477 7 28 7C28.5523 7 29 7.44775 29 8L29 10C29 11.3262 28.4732 12.5979 27.5355 13.5356C26.5978 14.4731 25.3261 15 24 15C22.6739 15 21.4022 14.4731 20.4645 13.5356C19.5268 12.5979 19 11.3262 19 10L19 8C19 7.44775 19.4477 7 20 7Z" fill="#A259FF" fill-opacity="1.000000" fill-rule="evenodd"/>
	<path id="NFT Marketplace" d="M51.48 22.5476L51.876 22.5476L51.876 8.59961L54.78 8.59961L54.78 23.9995L49.104 23.9995L47.3 10.0515L46.904 10.0515L46.904 23.9995L44 23.9995L44 8.59961L49.676 8.59961L51.48 22.5476ZM58.0647 8.59961L67.9207 8.59961L67.9207 11.3716L60.9687 11.3716L60.9687 14.8916L67.7887 14.8916L67.7887 17.6636L60.9687 17.6636L60.9687 23.9995L58.0647 23.9995L58.0647 8.59961ZM70.7874 8.59961L81.8754 8.59961L81.8754 11.3716L77.7834 11.3716L77.7834 23.9995L74.8794 23.9995L74.8794 11.3716L70.7874 11.3716L70.7874 8.59961ZM97.0248 8.59961L102.129 8.59961L103.009 20.1716L103.009 22.4155L103.537 22.4155L103.537 20.1716L104.417 8.59961L109.521 8.59961L109.521 23.9995L106.881 23.9995L106.881 13.7036L107.145 10.1836L106.617 10.1836L105.473 23.9995L101.117 23.9995L99.9288 10.1836L99.4008 10.1836L99.6648 13.7036L99.6648 23.9995L97.0248 23.9995L97.0248 8.59961ZM142.321 17.0916L142.849 17.0916L145.753 13.0876L148.789 13.0876L148.789 13.2197L145.269 18.2136L145.269 18.6096L149.141 23.8677L149.141 23.9995L145.973 23.9995L142.849 19.7317L142.321 19.7317L142.321 23.9995L139.549 23.9995L139.549 8.59961L142.321 8.59961L142.321 17.0916ZM165.302 13.0876L168.536 13.0876L168.536 8.59961L171.308 8.59961L171.308 13.0876L175.246 13.0876L175.246 15.7275L171.308 15.7275L171.308 20.6997C171.308 21.1396 171.506 21.3596 171.902 21.3596L174.85 21.3596L174.85 23.9995L170.23 23.9995C169.732 23.9995 169.321 23.8384 168.998 23.5156C168.69 23.1929 168.536 22.7822 168.536 22.2837L168.536 15.7275L165.302 15.7275L165.302 13.0876ZM192.486 21.3596L196.314 21.3596L196.314 11.2395L192.618 11.2395L192.618 8.59961L199.086 8.59961L199.086 21.3596L202.65 21.3596L202.65 23.9995L192.486 23.9995L192.486 21.3596ZM118.79 22.4155Q118.366 23.4119 117.615 23.8567Q117.586 23.8735 117.557 23.8896C117.03 24.1682 116.414 24.3076 115.71 24.3076C115.049 24.3076 114.426 24.1829 113.84 23.9336C113.268 23.6843 112.762 23.3176 112.322 22.8335C111.882 22.3496 111.53 21.7629 111.266 21.0737C111.016 20.3843 110.892 19.5996 110.892 18.7197L110.892 18.3677C110.892 17.5022 111.016 16.7249 111.266 16.0356Q111.64 15.0017 112.278 14.2756Q112.783 13.7004 113.413 13.3462L113.414 13.3457Q113.578 13.2532 113.752 13.1755C114.324 12.9116 114.932 12.7795 115.578 12.7795C116.355 12.7795 116.978 12.9116 117.448 13.1755C117.932 13.4397 118.313 13.8503 118.592 14.4077L118.988 14.4077L118.988 13.0876L121.76 13.0876L121.76 20.6997C121.76 21.1396 121.958 21.3596 122.354 21.3596L122.772 21.3596L122.772 23.9995L120.88 23.9995C120.381 23.9995 119.97 23.853 119.648 23.5596C119.34 23.2664 119.186 22.885 119.186 22.4155L118.79 22.4155ZM124.67 13.0876L129.29 13.0876L129.29 14.6716L129.686 14.6716C129.892 14.0703 130.236 13.6084 130.72 13.2856C131.219 12.9482 131.813 12.7795 132.502 12.7795C133.588 12.7795 134.46 13.1243 135.12 13.8137C135.78 14.4883 136.11 15.5222 136.11 16.9155L136.11 17.3997L133.25 17.6636L133.25 17.3557C133.25 16.7544 133.096 16.2776 132.788 15.9255C132.48 15.5588 132.018 15.3755 131.402 15.3755C130.786 15.3755 130.302 15.5884 129.95 16.0137C129.598 16.439 129.422 17.0476 129.422 17.8396L129.422 21.3596L131.93 21.3596L131.93 23.9995L124.406 23.9995L124.406 21.3596L126.65 21.3596L126.65 15.7275L124.67 15.7275L124.67 13.0876ZM154.582 19.4456Q154.599 19.8301 154.728 20.1731Q154.761 20.2617 154.802 20.3477Q154.852 20.4387 154.91 20.5251L154.91 20.5256Q155.103 20.8147 155.374 21.0515C155.623 21.2422 155.902 21.3962 156.21 21.5137Q156.255 21.5281 156.302 21.5415Q156.744 21.6677 157.222 21.6677C157.911 21.6677 158.439 21.5503 158.806 21.3157Q159.356 20.9417 159.598 20.4355L161.974 21.7556Q161.776 22.1736 161.424 22.6355C161.189 22.929 160.881 23.2002 160.5 23.4497C160.133 23.699 159.678 23.9043 159.136 24.0657C158.608 24.2271 157.984 24.3076 157.266 24.3076Q156.034 24.3076 155.022 23.9116C154.347 23.6477 153.76 23.2664 153.262 22.7676Q152.536 22.0195 152.118 20.9417C151.854 20.2229 151.722 19.4089 151.722 18.4995L151.722 18.3677C151.722 17.5315 151.861 16.769 152.14 16.0796C152.433 15.3904 152.829 14.8037 153.328 14.3196C153.826 13.8357 154.406 13.4617 155.066 13.1975C155.74 12.9189 156.459 12.7795 157.222 12.7795C158.16 12.7795 158.967 12.9482 159.642 13.2856C160.316 13.6084 160.874 14.0264 161.314 14.5396C161.754 15.0383 162.076 15.5957 162.282 16.2117C162.487 16.813 162.59 17.3997 162.59 17.9717L162.59 19.4456L154.582 19.4456ZM181.281 28.3997L178.509 28.3997L178.509 13.0876L181.281 13.0876L181.281 14.6716L181.677 14.6716C181.97 14.0703 182.396 13.6084 182.953 13.2856C183.51 12.9482 184.222 12.7795 185.087 12.7795C185.732 12.7795 186.341 12.9043 186.913 13.1536C187.5 13.4028 188.006 13.7695 188.431 14.2537C188.871 14.7229 189.216 15.3022 189.465 15.9917C189.729 16.6809 189.861 17.4656 189.861 18.3457L189.861 18.7417C189.861 19.6362 189.736 20.4282 189.487 21.1177C189.238 21.8069 188.9 22.3936 188.475 22.8777C188.05 23.3469 187.544 23.7063 186.957 23.9556C186.385 24.1902 185.762 24.3076 185.087 24.3076C184.588 24.3076 184.156 24.2563 183.789 24.1536C183.422 24.051 183.1 23.9116 182.821 23.7356C182.557 23.5596 182.33 23.3616 182.139 23.1416C181.963 22.907 181.809 22.665 181.677 22.4155L181.281 22.4155L181.281 28.3997ZM213.084 22.4155C212.791 23.105 212.38 23.5962 211.852 23.8896C211.324 24.1682 210.708 24.3076 210.004 24.3076C209.344 24.3076 208.721 24.1829 208.134 23.9336C207.562 23.6843 207.056 23.3176 206.616 22.8335C206.176 22.3496 205.824 21.7629 205.56 21.0737Q205.186 20.0396 205.186 18.7197L205.186 18.3677Q205.186 17.0696 205.56 16.0356C205.81 15.3462 206.147 14.7595 206.572 14.2756Q207.078 13.7004 207.708 13.3462Q207.873 13.2532 208.046 13.1755C208.618 12.9116 209.227 12.7795 209.872 12.7795C210.65 12.7795 211.273 12.9116 211.742 13.1755Q211.866 13.2429 211.98 13.3228L211.982 13.324Q212.54 13.7146 212.886 14.4077L213.282 14.4077L213.282 13.0876L216.054 13.0876L216.054 20.6997Q216.054 21.0642 216.236 21.2275Q216.383 21.3596 216.648 21.3596L217.066 21.3596L217.066 23.9995L215.174 23.9995C214.676 23.9995 214.265 23.853 213.942 23.5596C213.634 23.2664 213.48 22.885 213.48 22.4155L213.084 22.4155ZM230.141 19.9956C229.892 21.2864 229.298 22.3276 228.359 23.1196Q228.299 23.1709 228.238 23.22L228.237 23.2207Q226.872 24.3076 224.641 24.3076C223.834 24.3076 223.079 24.1829 222.375 23.9336C221.686 23.6843 221.084 23.325 220.571 22.8557Q220.494 22.7852 220.42 22.7114Q219.757 22.0481 219.361 21.1177Q218.921 20.0835 218.921 18.7637L218.921 18.4995Q218.921 17.1797 219.361 16.1235Q219.75 15.1907 220.396 14.498L220.396 14.498L220.397 14.4973Q220.482 14.4065 220.571 14.3196C221.099 13.821 221.708 13.4397 222.397 13.1755Q222.503 13.136 222.609 13.1006Q223.572 12.7795 224.641 12.7795C226.166 12.7795 227.398 13.1755 228.337 13.9675Q228.868 14.4084 229.253 14.9524Q229.906 15.874 230.141 17.0916L227.413 17.7957C227.325 17.1504 227.046 16.593 226.577 16.1235C226.108 15.6543 225.448 15.4197 224.597 15.4197C224.201 15.4197 223.827 15.4929 223.475 15.6396C223.123 15.7864 222.815 15.999 222.551 16.2776C222.287 16.5415 222.074 16.8716 221.913 17.2676Q221.693 17.8396 221.693 18.5657L221.693 18.6975Q221.693 19.4236 221.913 19.9956C222.074 20.3623 222.287 20.6702 222.551 20.9197C222.815 21.1689 223.123 21.3596 223.475 21.4917C223.827 21.6089 224.201 21.6677 224.597 21.6677C225.448 21.6677 226.093 21.4548 226.533 21.0295Q226.612 20.9561 226.684 20.8765Q227.238 20.2671 227.413 19.3137L230.141 19.9956ZM235.406 19.4456Q235.423 19.8301 235.552 20.1731Q235.585 20.2617 235.626 20.3477C235.773 20.6116 235.963 20.8462 236.198 21.0515C236.447 21.2422 236.726 21.3962 237.034 21.5137C237.357 21.6162 237.694 21.6677 238.046 21.6677C238.735 21.6677 239.263 21.5503 239.63 21.3157C239.997 21.0662 240.26 20.7729 240.422 20.4355L242.798 21.7556Q242.6 22.1736 242.248 22.6355C242.013 22.929 241.705 23.2002 241.324 23.4497C240.957 23.699 240.503 23.9043 239.96 24.0657Q239.168 24.3076 238.09 24.3076C237.268 24.3076 236.521 24.1755 235.846 23.9116C235.171 23.6477 234.585 23.2664 234.086 22.7676Q233.36 22.0195 232.942 20.9417C232.678 20.2229 232.546 19.4089 232.546 18.4995L232.546 18.3677C232.546 17.5315 232.685 16.769 232.964 16.0796C233.257 15.3904 233.653 14.8037 234.152 14.3196C234.651 13.8357 235.23 13.4617 235.89 13.1975C236.565 12.9189 237.283 12.7795 238.046 12.7795C238.984 12.7795 239.791 12.9482 240.466 13.2856C241.141 13.6084 241.698 14.0264 242.138 14.5396C242.578 15.0383 242.901 15.5957 243.106 16.2117C243.311 16.813 243.414 17.3997 243.414 17.9717L243.414 19.4456L235.406 19.4456ZM157.2 15.2876C156.496 15.2876 155.924 15.4709 155.484 15.8376C155.044 16.1897 154.758 16.6003 154.626 17.0696L159.774 17.0696C159.686 16.5564 159.407 16.1309 158.938 15.7937C158.483 15.4563 157.904 15.2876 157.2 15.2876ZM238.024 15.2876C237.32 15.2876 236.748 15.4709 236.308 15.8376C235.868 16.1897 235.582 16.6003 235.45 17.0696L240.598 17.0696C240.51 16.5564 240.231 16.1309 239.762 15.7937C239.307 15.4563 238.728 15.2876 238.024 15.2876ZM116.326 21.6677Q117.148 21.6677 117.747 21.3018Q118.029 21.1292 118.262 20.8755C118.746 20.333 118.988 19.5996 118.988 18.6755L118.988 18.4116C118.988 17.4875 118.746 16.7617 118.262 16.2336Q118.01 15.9512 117.699 15.7666Q117.116 15.4197 116.326 15.4197C115.519 15.4197 114.874 15.6909 114.39 16.2336C113.906 16.7617 113.664 17.4875 113.664 18.4116L113.664 18.6755C113.664 19.5996 113.906 20.333 114.39 20.8755C114.874 21.4036 115.519 21.6677 116.326 21.6677ZM184.185 21.6677C185.05 21.6677 185.747 21.4036 186.275 20.8755Q186.437 20.7136 186.567 20.5291Q187.089 19.7859 187.089 18.6755L187.089 18.4116C187.089 17.4875 186.818 16.7617 186.275 16.2336C185.747 15.6909 185.05 15.4197 184.185 15.4197C183.32 15.4197 182.616 15.6982 182.073 16.2556C181.545 16.7983 181.281 17.5168 181.281 18.4116L181.281 18.6755C181.281 19.5703 181.545 20.2964 182.073 20.8535C182.616 21.3962 183.32 21.6677 184.185 21.6677ZM210.62 21.6677C211.427 21.6677 212.072 21.4036 212.556 20.8755C213.04 20.333 213.282 19.5996 213.282 18.6755L213.282 18.4116C213.282 17.4875 213.04 16.7617 212.556 16.2336C212.072 15.6909 211.427 15.4197 210.62 15.4197C209.814 15.4197 209.168 15.6909 208.684 16.2336C208.2 16.7617 207.958 17.4875 207.958 18.4116L207.958 18.6755C207.958 19.5996 208.2 20.333 208.684 20.8755C209.168 21.4036 209.814 21.6677 210.62 21.6677Z" fill="#FFFFFF" fill-opacity="1.000000" fill-rule="evenodd"/>
</svg>
