<svg width="29.000000" height="26.000000" viewBox="0 0 29 26" fill="none" xmlns="http://www.w3.org/2000/svg" xmlns:xlink="http://www.w3.org/1999/xlink">
	<desc>
			Created with Pixso.
	</desc>
	<defs/>
	<path id="Vector (Stroke)" d="M3 7C3 6.44775 3.44772 6 4 6L28 6C28.5523 6 29 6.44775 29 7L29 24C29 24.5305 28.7893 25.0391 28.4142 25.4143C28.0391 25.7893 27.5304 26 27 26L5 26C4.46957 26 3.96085 25.7893 3.58578 25.4143C3.21072 25.0391 3 24.5305 3 24L3 7ZM5 8L5 24L27 24L27 8L5 8Z" fill="#FFFFFF" fill-opacity="1.000000" fill-rule="evenodd"/>
	<path id="Vector (Stroke)" d="M3.26285 6.32422C3.63605 5.91724 4.26862 5.88965 4.67572 6.26294L16 16.6436L27.3243 6.26294C27.7314 5.88965 28.364 5.91724 28.7372 6.32422C29.1104 6.73145 29.0829 7.36401 28.6757 7.73706L16.6757 18.7371C16.2934 19.0876 15.7066 19.0876 15.3243 18.7371L3.32428 7.73706C2.91718 7.36401 2.88965 6.73145 3.26285 6.32422Z" fill="#FFFFFF" fill-opacity="1.000000" fill-rule="evenodd"/>
</svg>
