<svg width="20.000000" height="20.000000" viewBox="0 0 20 20" fill="none" xmlns="http://www.w3.org/2000/svg" xmlns:xlink="http://www.w3.org/1999/xlink">
	<desc>
			Created with Pixso.
	</desc>
	<defs/>
	<path id="Vector (Stroke)" d="M6.17053 12.4492C6.28055 12.7764 6.10452 13.1309 5.77734 13.2407C4.71793 13.5969 4.15488 14.4863 3.85373 15.3909C3.73413 15.7498 3.6619 16.0957 3.61847 16.3813C3.90433 16.3381 4.25006 16.2659 4.60916 16.1462C5.51355 15.845 6.40289 15.282 6.75916 14.2227C6.86917 13.8955 7.2236 13.7195 7.55078 13.8293C7.87796 13.9395 8.05399 14.2939 7.94397 14.6211C7.40961 16.21 6.08801 16.9712 5.00412 17.3323C4.45654 17.5144 3.94394 17.6045 3.56979 17.6494C3.38181 17.6719 3.22641 17.6833 3.116 17.6892C3.06073 17.6921 3.01657 17.6936 2.98505 17.6943C2.9693 17.6948 2.95667 17.6951 2.94739 17.6951L2.93597 17.6953L2.93216 17.6953L2.93076 17.6953L2.93018 17.6953C2.92993 17.6953 2.92969 17.6953 2.92969 17.0703C2.30469 17.0703 2.30469 17.0701 2.30469 17.0698L2.30469 17.0691L2.30469 17.0679L2.30472 17.064L2.30481 17.0525C2.30493 17.0432 2.30515 17.0308 2.30551 17.0149C2.3063 16.9834 2.30783 16.9392 2.31073 16.884C2.31653 16.7734 2.32797 16.6182 2.35052 16.4302C2.39539 16.0559 2.48541 15.5435 2.66776 14.9958C3.02872 13.9119 3.78989 12.5903 5.37891 12.0559C5.70609 11.946 6.06052 12.1221 6.17053 12.4492ZM2.92969 17.0703L2.30469 17.0703C2.30469 17.4155 2.5845 17.6953 2.92969 17.6953L2.92969 17.0703Z" fill="#FFFFFF" fill-opacity="1.000000" fill-rule="evenodd"/>
	<path id="Vector (Stroke)" d="M16.5461 3.4541C15.8207 3.34937 14.035 3.31006 12.2075 5.13745L7.34476 10.0002L9.99994 12.6555L14.8627 7.79272C16.6902 5.96509 16.6508 4.17944 16.5461 3.4541ZM16.7274 2.21729C15.7297 2.07275 13.5057 2.07153 11.3236 4.25366L6.01892 9.55835C5.90173 9.67554 5.83588 9.83447 5.83588 10.0002C5.83588 10.166 5.90173 10.325 6.01892 10.4421L9.55798 13.9812C9.80206 14.2253 10.1978 14.2253 10.4419 13.9812L15.7466 8.67651C17.9286 6.49463 17.9274 4.27051 17.783 3.27271C17.7464 3.00586 17.6234 2.75806 17.4328 2.56738C17.2422 2.37671 16.9944 2.25391 16.7274 2.21729Z" fill="#FFFFFF" fill-opacity="1.000000" fill-rule="evenodd"/>
	<path id="Vector (Stroke)" d="M14.4219 8.49243C14.7671 8.49243 15.0469 8.77222 15.0469 9.11743L15.0469 14.1643L15.0468 14.1731C15.0421 14.5015 14.9085 14.8147 14.6749 15.0452L12.1526 17.5752C11.9925 17.7351 11.792 17.8486 11.5724 17.9036C11.3529 17.9585 11.1225 17.9526 10.906 17.887C10.6895 17.821 10.4948 17.6978 10.3429 17.53C10.1911 17.3625 10.0876 17.157 10.0433 16.9351L9.38721 13.6621C9.31934 13.3237 9.5387 12.9944 9.87714 12.9265C10.2156 12.8586 10.545 13.0781 10.6128 13.4165L11.2693 16.6909L13.7969 14.1555L13.7969 9.11743C13.7969 8.77222 14.0767 8.49243 14.4219 8.49243Z" fill="#FFFFFF" fill-opacity="1.000000" fill-rule="evenodd"/>
	<path id="Vector (Stroke)" d="M5.82697 4.95312L5.83588 4.95312L10.8828 4.95312C11.2279 4.95312 11.5078 5.23291 11.5078 5.57812C11.5078 5.92334 11.2279 6.20312 10.8828 6.20312L5.84473 6.20312L5.83966 6.20825L5.83963 6.20825L3.30933 8.73071L3.3103 8.73096L6.58374 9.38721C6.92218 9.45508 7.14154 9.78442 7.0737 10.1228C7.00583 10.4612 6.67648 10.6807 6.33801 10.6128L3.06555 9.95679C3.06537 9.95679 3.06519 9.95679 3.065 9.95654C2.84326 9.91235 2.63763 9.80884 2.47006 9.65723C2.30234 9.50513 2.17905 9.31055 2.11328 9.09399C2.04752 8.87744 2.04175 8.64722 2.09665 8.42749C2.15155 8.20801 2.26501 8.00757 2.42493 7.84741L2.42587 7.84644L2.42587 7.84644L4.95499 5.3252C5.18549 5.09155 5.49869 4.95776 5.82697 4.95312Z" fill="#FFFFFF" fill-opacity="1.000000" fill-rule="evenodd"/>
</svg>
