<?xml version="1.0" encoding="utf-8"?><svg viewBox="0 0 32 32" xmlns="http://www.w3.org/2000/svg" xmlns:xlink="http://www.w3.org/1999/xlink"><style>:root>svg{display:none}:root>svg:target{display:block}</style><svg fill="none" viewBox="0 0 32 32" id="DiscordLogo" xmlns="http://www.w3.org/2000/svg"><path d="M12 19.5a1.5 1.5 0 1 0 0-3 1.5 1.5 0 0 0 0 3ZM20 19.5a1.5 1.5 0 1 0 0-3 1.5 1.5 0 0 0 0 3Z" fill="#858584"/><path d="M15.993 10a20.862 20.862 0 0 0-6.394.954 1 1 0 0 1-.598-1.909A22.87 22.87 0 0 1 16 8a22.869 22.869 0 0 1 7 1.045 1 1 0 1 1-.599 1.909A20.863 20.863 0 0 0 16.007 10h-.014ZM8.346 21.7a1 1 0 0 1 1.253-.654c2.069.648 4.226.97 6.394.954h.014a20.868 20.868 0 0 0 6.394-.954 1 1 0 1 1 .598 1.908A22.863 22.863 0 0 1 16 24a22.863 22.863 0 0 1-6.999-1.046 1 1 0 0 1-.655-1.253Z" fill="#858584" fill-rule="evenodd"/><path d="M20.22 4.811c.43-.242.935-.318 1.418-.213 1.317.286 2.607.686 3.855 1.197a1.964 1.964 0 0 1 1.179 1.286l4.236 14.145a2.013 2.013 0 0 1-.597 2.087l-.005.004c-2.067 1.799-4.869 3.16-8.05 3.94a1.976 1.976 0 0 1-2.266-1.053l-1.508-2.991a1 1 0 1 1 1.786-.9l1.512 3 .002.002c2.937-.72 5.431-1.958 7.212-3.507l.656.755-.662-.75a.012.012 0 0 0 .004-.006V21.8L24.756 7.655a21.053 21.053 0 0 0-3.543-1.102l-.002-.001-.009.001a.012.012 0 0 0-.005.006l-.985 2.98a1 1 0 1 1-1.899-.628l.99-2.996c.16-.468.486-.86.917-1.104ZM10.798 6.553a.012.012 0 0 0-.01-.001h-.001a21.053 21.053 0 0 0-3.543 1.103L3.008 21.8v.007c0 .002.002.004.003.005 1.78 1.547 4.272 2.783 7.207 3.503l.002-.003 1.512-3a1 1 0 1 1 1.786.9l-1.508 2.992a1.973 1.973 0 0 1-2.266 1.054c-3.182-.78-5.983-2.142-8.05-3.94l-.006-.006a2.011 2.011 0 0 1-.596-2.086L5.328 7.08a1.963 1.963 0 0 1 1.18-1.286 23.072 23.072 0 0 1 3.855-1.197 2.011 2.011 0 0 1 2.334 1.317l.003.009.987 2.987a1 1 0 1 1-1.899.628l-.985-2.98a.012.012 0 0 0-.005-.006Z" fill="#858584" fill-rule="evenodd"/><path d="M12 19.5a1.5 1.5 0 1 0 0-3 1.5 1.5 0 0 0 0 3ZM20 19.5a1.5 1.5 0 1 0 0-3 1.5 1.5 0 0 0 0 3Z" fill="#858584"/><path d="M15.993 10a20.862 20.862 0 0 0-6.394.954 1 1 0 0 1-.598-1.909A22.87 22.87 0 0 1 16 8a22.869 22.869 0 0 1 7 1.045 1 1 0 1 1-.599 1.909A20.863 20.863 0 0 0 16.007 10h-.014ZM8.346 21.7a1 1 0 0 1 1.253-.654c2.069.648 4.226.97 6.394.954h.014a20.868 20.868 0 0 0 6.394-.954 1 1 0 1 1 .598 1.908A22.863 22.863 0 0 1 16 24a22.863 22.863 0 0 1-6.999-1.046 1 1 0 0 1-.655-1.253Z" fill="#858584" fill-rule="evenodd"/><path d="M20.22 4.811c.43-.242.935-.318 1.418-.213 1.317.286 2.607.686 3.855 1.197a1.964 1.964 0 0 1 1.179 1.286l4.236 14.145a2.013 2.013 0 0 1-.597 2.087l-.005.004c-2.067 1.799-4.869 3.16-8.05 3.94a1.976 1.976 0 0 1-2.266-1.053l-1.508-2.991a1 1 0 1 1 1.786-.9l1.512 3 .002.002c2.937-.72 5.431-1.958 7.212-3.507l.656.755-.662-.75a.012.012 0 0 0 .004-.006V21.8L24.756 7.655a21.053 21.053 0 0 0-3.543-1.102l-.002-.001-.009.001a.012.012 0 0 0-.005.006l-.985 2.98a1 1 0 1 1-1.899-.628l.99-2.996c.16-.468.486-.86.917-1.104ZM10.798 6.553a.012.012 0 0 0-.01-.001h-.001a21.053 21.053 0 0 0-3.543 1.103L3.008 21.8v.007c0 .002.002.004.003.005 1.78 1.547 4.272 2.783 7.207 3.503l.002-.003 1.512-3a1 1 0 1 1 1.786.9l-1.508 2.992a1.973 1.973 0 0 1-2.266 1.054c-3.182-.78-5.983-2.142-8.05-3.94l-.006-.006a2.011 2.011 0 0 1-.596-2.086L5.328 7.08a1.963 1.963 0 0 1 1.18-1.286 23.072 23.072 0 0 1 3.855-1.197 2.011 2.011 0 0 1 2.334 1.317l.003.009.987 2.987a1 1 0 1 1-1.899.628l-.985-2.98a.012.012 0 0 0-.005-.006Z" fill="#858584" fill-rule="evenodd"/></svg><svg fill="none" viewBox="0 0 29 26" id="EnvelopeSimple" xmlns="http://www.w3.org/2000/svg"><path d="M3 7a1 1 0 0 1 1-1h24a1 1 0 0 1 1 1v17a2 2 0 0 1-2 2H5a2 2 0 0 1-2-2V7Zm2 1v16h22V8H5Z" fill="#FFF" fill-rule="evenodd"/><path d="M3.263 6.324a1 1 0 0 1 1.413-.061L16 16.643l11.324-10.38a1 1 0 1 1 1.352 1.474l-12 11a1 1 0 0 1-1.352 0l-12-11a1 1 0 0 1-.061-1.413Z" fill="#FFF" fill-rule="evenodd"/></svg><svg fill="none" viewBox="0 0 31 26" id="Eye" xmlns="http://www.w3.org/2000/svg"><path d="M4.543 10.793C6.927 8.409 10.667 6 16 6c5.333 0 9.073 2.41 11.457 4.793a18.922 18.922 0 0 1 2.608 3.268 15.973 15.973 0 0 1 .789 1.404l.042.09.012.026.004.008v.003h.001c0 .001 0 .002-.913.408.914.406.914.407.913.407v.001l-.001.003-.004.008-.012.026-.042.09a15.973 15.973 0 0 1-.789 1.404 18.922 18.922 0 0 1-2.608 3.268C25.073 23.591 21.333 26 16 26c-5.333 0-9.073-2.41-11.457-4.793a18.917 18.917 0 0 1-2.608-3.268 15.983 15.983 0 0 1-.789-1.404 6.774 6.774 0 0 1-.042-.09l-.012-.026-.004-.008v-.003h-.001c0-.001 0-.002.913-.408-.914-.406-.914-.407-.913-.407v-.001l.001-.003.004-.008.012-.026.042-.09a15.983 15.983 0 0 1 .789-1.404 18.917 18.917 0 0 1 2.608-3.268ZM2 16l-.914-.406a1 1 0 0 0 0 .812L2 16Zm1.118 0c.118.22.287.52.51.873a16.92 16.92 0 0 0 2.33 2.92C8.072 21.909 11.332 24 16 24s7.927-2.09 10.043-4.207a16.915 16.915 0 0 0 2.33-2.92c.222-.353.391-.653.509-.873a14.18 14.18 0 0 0-.51-.873 16.915 16.915 0 0 0-2.33-2.92C23.928 10.091 20.668 8 16 8s-7.927 2.09-10.043 4.207a16.92 16.92 0 0 0-2.33 2.92c-.222.353-.391.653-.509.873ZM30 16l.914.406a1 1 0 0 0 0-.812L30 16Z" fill="#FFF" fill-rule="evenodd"/><path d="M16 12a4 4 0 1 0 0 8 4 4 0 0 0 0-8Zm-6 4a6 6 0 1 1 12 0 6 6 0 0 1-12 0Z" fill="#FFF" fill-rule="evenodd"/></svg><svg fill="none" viewBox="0 0 32 32" id="InstagramLogo" xmlns="http://www.w3.org/2000/svg"><path d="M16 12a4 4 0 1 0 0 8 4 4 0 0 0 0-8Zm-6 4a6 6 0 1 1 12 0 6 6 0 0 1-12 0Z" fill="#858584" fill-rule="evenodd"/><path d="M10.5 5.5a5 5 0 0 0-5 5v11a5 5 0 0 0 5 5h11a5 5 0 0 0 5-5v-11a5 5 0 0 0-5-5h-11Zm-7 5a7 7 0 0 1 7-7h11a7 7 0 0 1 7 7v11a7 7 0 0 1-7 7h-11a7 7 0 0 1-7-7v-11Z" fill="#858584" fill-rule="evenodd"/><path d="M22.5 11a1.5 1.5 0 1 0 0-3 1.5 1.5 0 0 0 0 3Z" fill="#858584"/></svg><svg fill="none" viewBox="0 0 20 20" id="RocketLaunch" xmlns="http://www.w3.org/2000/svg"><path d="M6.17 12.45a.625.625 0 0 1-.393.79c-1.06.357-1.622 1.246-1.923 2.15-.12.36-.192.706-.236.991.286-.043.632-.115.991-.235.905-.301 1.794-.864 2.15-1.923a.625.625 0 0 1 1.185.398c-.534 1.589-1.856 2.35-2.94 2.711a7.393 7.393 0 0 1-2.057.363h-.016l-.001-.625h-.625V17.051a3.956 3.956 0 0 1 .006-.168 7.374 7.374 0 0 1 .357-1.888c.36-1.084 1.122-2.406 2.71-2.94a.625.625 0 0 1 .793.393Zm-3.24 4.62h-.625c0 .346.28.625.625.625v-.625ZM16.546 3.454c-.725-.105-2.511-.144-4.338 1.683L7.344 10 10 12.655l4.863-4.862c1.827-1.828 1.788-3.614 1.683-4.339Zm.181-1.237c-.997-.144-3.221-.145-5.403 2.037L6.019 9.558a.625.625 0 0 0 0 .884l3.539 3.54c.244.243.64.243.884 0l5.305-5.305c2.182-2.182 2.18-4.406 2.036-5.404a1.235 1.235 0 0 0-1.056-1.056Z" fill="#FFF" fill-rule="evenodd"/><path d="M14.422 8.492c.345 0 .625.28.625.625V14.174a1.25 1.25 0 0 1-.372.871l-2.522 2.53a1.251 1.251 0 0 1-2.11-.64l-.656-3.273a.625.625 0 1 1 1.226-.246l.656 3.275 2.528-2.535V9.117c0-.345.28-.625.625-.625ZM5.827 4.953h5.056a.625.625 0 0 1 0 1.25H5.845l-.005.005-2.53 2.523 3.274.656a.625.625 0 1 1-.246 1.226l-3.272-.656h-.001a1.251 1.251 0 0 1-.64-2.11l2.53-2.522a1.25 1.25 0 0 1 .872-.372Z" fill="#FFF" fill-rule="evenodd"/></svg><svg fill="none" viewBox="0 0 32 32" id="TwitterLogo" xmlns="http://www.w3.org/2000/svg"><path d="M21.062 6a4.999 4.999 0 0 1 4.525 3H30l-4.038 4.038A15.986 15.986 0 0 1 10 28c-4 0-5-1.5-5-1.5S9 25 11 22c0 0-8-4-6-15 0 0 5 5 11 6v-2c0-2.75 2.312-5.037 5.062-5Z" stroke="#858584" stroke-width="2" stroke-linejoin="round"/></svg><svg fill="none" viewBox="0 0 29.125 28" id="User" xmlns="http://www.w3.org/2000/svg"><path d="M16 5a7 7 0 1 0 0 14 7 7 0 0 0 0-14Zm-9 7a9 9 0 1 1 18 0 9 9 0 0 1-18 0Z" fill="#FFF" fill-rule="evenodd"/><path d="M16 20.999A13 13 0 0 0 4.74 27.5a1 1 0 0 1-1.732-1 15 15 0 0 1 25.982 0 1 1 0 0 1-1.732 1 12.999 12.999 0 0 0-11.26-6.501Z" fill="#FFF" fill-rule="evenodd"/></svg><svg fill="none" viewBox="0 0 32 32" id="YoutubeLogo" xmlns="http://www.w3.org/2000/svg"><path d="M13.528 11.118a1 1 0 0 1 1.027.05l6 4a1 1 0 0 1 0 1.664l-6 4A1 1 0 0 1 13 20v-8a1 1 0 0 1 .528-.882ZM15 13.868v4.264L18.197 16 15 13.868Z" fill="#858584" fill-rule="evenodd"/><path d="M15.998 5.05h-.079c-.055 0-.134 0-.236.002a54.3 54.3 0 0 0-3.76.183c-2.276.192-5.174.59-7.405 1.443l-.015.006a3.011 3.011 0 0 0-1.796 2.04v.003C2.394 9.946 2 12.206 2 16c0 3.794.395 6.054.706 7.273l.001.003a3.011 3.011 0 0 0 1.796 2.04l.015.006c2.231.852 5.13 1.251 7.406 1.443a54.061 54.061 0 0 0 3.76.183c.101.002.18.002.235.002h.162c.055 0 .134 0 .236-.002a54.061 54.061 0 0 0 3.76-.183c2.276-.192 5.174-.59 7.405-1.444l.015-.005a3.01 3.01 0 0 0 1.796-2.04v-.003C29.606 22.053 30 19.794 30 16c0-3.794-.395-6.054-.706-7.273l-.001-.004a3.013 3.013 0 0 0-1.796-2.039l-.015-.006c-2.231-.852-5.13-1.251-7.406-1.443a54.3 54.3 0 0 0-3.76-.183c-.101-.002-.18-.002-.235-.002h-.083Zm-.003 19.9h.082c.049 0 .123 0 .219-.002a52.086 52.086 0 0 0 3.612-.176c2.236-.189 4.896-.57 6.852-1.316a1.01 1.01 0 0 0 .597-.68C27.62 21.742 28 19.652 28 16c0-3.653-.38-5.743-.643-6.775a1.012 1.012 0 0 0-.597-.682c-1.956-.745-4.616-1.127-6.852-1.315a52.066 52.066 0 0 0-3.612-.177l-.22-.001h-.153l-.219.001a52.066 52.066 0 0 0-3.612.176c-2.236.19-4.896.57-6.852 1.316a1.012 1.012 0 0 0-.597.682C4.38 10.257 4 12.347 4 16c0 3.653.38 5.743.643 6.775a1.012 1.012 0 0 0 .597.681c1.956.746 4.616 1.127 6.852 1.316a52.086 52.086 0 0 0 3.612.177l.22.001H15.994Z" fill="#858584" fill-rule="evenodd"/></svg></svg>