<svg width="32.000000" height="32.000000" viewBox="0 0 32 32" fill="none" xmlns="http://www.w3.org/2000/svg" xmlns:xlink="http://www.w3.org/1999/xlink">
	<desc>
			Created with Pixso.
	</desc>
	<defs/>
	<path id="Vector" d="M21.0624 6.00049C22.0255 6.01147 22.9648 6.30054 23.7676 6.83276C24.5703 7.36499 25.2023 8.11768 25.5874 9.00049L29.9999 9.00049L25.9624 13.0378C25.7019 17.0938 23.9066 20.8979 20.9414 23.6772C17.9763 26.4565 14.064 28.0024 9.99994 28.0005C5.99994 28.0005 4.99994 26.5005 4.99994 26.5005C4.99994 26.5005 8.99994 25.0005 10.9999 22.0005C10.9999 22.0005 2.99994 18.0005 4.99994 7.00049C4.99994 7.00049 9.99994 12.0005 15.9999 13.0005L15.9999 11.0005C15.9999 8.25049 18.3124 5.96289 21.0624 6.00049Z" stroke="#858584" stroke-opacity="1.000000" stroke-width="2.000000" stroke-linejoin="round"/>
</svg>
