<svg width="29.125092" height="28.000244" viewBox="0 0 29.1251 28.0002" fill="none" xmlns="http://www.w3.org/2000/svg" xmlns:xlink="http://www.w3.org/1999/xlink">
	<desc>
			Created with Pixso.
	</desc>
	<defs/>
	<path id="Vector (Stroke)" d="M16 5C12.134 5 9 8.13403 9 12C9 15.866 12.134 19 16 19C19.866 19 23 15.866 23 12C23 8.13403 19.866 5 16 5ZM7 12C7 7.02954 11.0294 3 16 3C20.9706 3 25 7.02954 25 12C25 16.9705 20.9706 21 16 21C11.0294 21 7 16.9705 7 12Z" fill="#FFFFFF" fill-opacity="1.000000" fill-rule="evenodd"/>
	<path id="Vector (Stroke)" d="M15.9999 20.999C13.7177 20.999 11.4758 21.5999 9.49939 22.741C7.52304 23.8821 5.8819 25.5234 4.741 27.5C4.4649 27.9783 3.85333 28.1423 3.375 27.8662C2.8967 27.5901 2.73276 26.9785 3.00885 26.5002C4.32529 24.2197 6.2189 22.3257 8.49933 21.009C10.7798 19.6921 13.3666 18.999 15.9999 18.999C18.6332 18.999 21.2201 19.6921 23.5005 21.009C25.7809 22.3257 27.6746 24.2197 28.991 26.5002C29.2671 26.9785 29.1031 27.5901 28.6248 27.8662C28.1465 28.1423 27.5349 27.9783 27.2589 27.5C26.118 25.5234 24.4768 23.8821 22.5004 22.741C20.5241 21.5999 18.2821 20.999 15.9999 20.999Z" fill="#FFFFFF" fill-opacity="1.000000" fill-rule="evenodd"/>
</svg>
