<svg width="32.000000" height="32.000000" viewBox="0 0 32 32" fill="none" xmlns="http://www.w3.org/2000/svg" xmlns:xlink="http://www.w3.org/1999/xlink">
	<desc>
			Created with Pixso.
	</desc>
	<defs/>
	<path id="Vector (Stroke)" d="M13.5281 11.1184C13.8533 10.9443 14.2478 10.9634 14.5547 11.168L20.5547 15.168C20.8329 15.3535 21 15.6655 21 16C21 16.3345 20.8329 16.6465 20.5547 16.832L14.5547 20.832C14.2478 21.0366 13.8533 21.0557 13.5281 20.8816C13.203 20.7078 13 20.3689 13 20L13 12C13 11.6311 13.203 11.2922 13.5281 11.1184ZM15 13.8684L15 18.1316L18.1972 16L15 13.8684Z" fill="#858584" fill-opacity="1.000000" fill-rule="evenodd"/>
	<path id="Vector (Stroke)" d="M15.9985 5.0498L15.9816 5.0498L15.9188 5.0498C15.8643 5.05005 15.785 5.05029 15.6831 5.05151C15.4794 5.05371 15.1856 5.05859 14.8206 5.06934C14.0912 5.09131 13.0746 5.13745 11.9237 5.23462C9.64734 5.42676 6.74927 5.82568 4.51807 6.67822L4.50339 6.68408C4.06509 6.85938 3.67419 7.1355 3.36218 7.48975C3.05017 7.84399 2.82578 8.2666 2.70712 8.72339L2.70615 8.72729C2.39471 9.9458 2 12.2056 2 15.9998C2 19.7942 2.39471 22.054 2.70615 23.2725L2.70712 23.2761C2.82578 23.7332 3.05017 24.1558 3.36218 24.51C3.67419 24.8643 4.06509 25.1404 4.50339 25.3157L4.51807 25.3215C6.74927 26.1741 9.64734 26.573 11.9237 26.7651C13.0746 26.8623 14.0912 26.9084 14.8206 26.9302C15.1856 26.9412 15.4794 26.946 15.6831 26.9482C15.785 26.9495 15.8643 26.9497 15.9188 26.95L15.9816 26.95L15.9985 26.95L16.0015 26.95L16.0184 26.95L16.0812 26.95C16.1357 26.9497 16.215 26.9495 16.3169 26.9482C16.5206 26.946 16.8144 26.9412 17.1794 26.9302C17.9088 26.9084 18.9254 26.8623 20.0763 26.7651C22.3527 26.573 25.2507 26.1741 27.4819 25.3215L27.4966 25.3157C27.9349 25.1404 28.3258 24.8643 28.6378 24.51C28.9498 24.1558 29.1742 23.7332 29.2929 23.2761L29.2939 23.2725C29.6053 22.054 30 19.7942 30 15.9998C30 12.2056 29.6053 9.9458 29.2939 8.72729L29.2929 8.72339C29.1742 8.2666 28.9498 7.84399 28.6378 7.48975C28.3258 7.1355 27.9349 6.85938 27.4966 6.68408L27.4819 6.67822C25.2507 5.82568 22.3527 5.42676 20.0763 5.23462C18.9254 5.13745 17.9088 5.09131 17.1794 5.06934C16.8144 5.05859 16.5206 5.05371 16.3169 5.05151C16.215 5.05029 16.1357 5.05005 16.0812 5.0498L16.0184 5.0498L16.0015 5.0498L15.9985 5.0498ZM15.9948 24.95L16.0054 24.9497L16.0086 24.95L16.0217 24.95L16.0767 24.95C16.1259 24.9497 16.1996 24.9495 16.2957 24.9485C16.4877 24.9463 16.7686 24.9417 17.1194 24.9312C17.8216 24.9102 18.8011 24.8657 19.9081 24.7722C22.1441 24.5833 24.8041 24.2019 26.7596 23.4565C26.9044 23.3975 27.0335 23.3057 27.1369 23.1882C27.2415 23.0696 27.3167 22.928 27.3567 22.7751C27.6203 21.7429 28 19.6528 28 15.9998C28 12.3467 27.6203 10.2568 27.3567 9.22461C27.3167 9.07178 27.2415 8.93018 27.1369 8.81152C27.0335 8.69409 26.9044 8.60229 26.7596 8.54321C24.8041 7.79785 22.1441 7.41626 19.9081 7.22754C18.8011 7.13403 17.8216 7.0896 17.1194 7.0686C16.7686 7.05811 16.4877 7.05347 16.2957 7.05127C16.1996 7.05029 16.1259 7.05005 16.0767 7.0498L16.0217 7.0498L16.0086 7.0498L16.0057 7.0498L15.9946 7.0498L15.9914 7.0498L15.9783 7.0498L15.9233 7.0498C15.8741 7.05005 15.8004 7.05029 15.7043 7.05127C15.5123 7.05347 15.2314 7.05811 14.8806 7.0686C14.1784 7.0896 13.1989 7.13403 12.0919 7.22754C9.8559 7.41626 7.19589 7.79785 5.24039 8.54321C5.09561 8.60229 4.96646 8.69409 4.86307 8.81152C4.75854 8.93018 4.68329 9.07178 4.64331 9.22461C4.37973 10.2568 4 12.3467 4 15.9998C4 19.6528 4.37973 21.7429 4.64331 22.7751C4.68329 22.928 4.75854 23.0696 4.86307 23.1882C4.96646 23.3057 5.09561 23.3975 5.24039 23.4565C7.19589 24.2019 9.8559 24.5833 12.0919 24.7722C13.1989 24.8657 14.1784 24.9102 14.8806 24.9312C15.2314 24.9417 15.5123 24.9463 15.7043 24.9485C15.8004 24.9495 15.8741 24.9497 15.9233 24.95L15.9783 24.95L15.9914 24.95L15.9948 24.95Z" fill="#858584" fill-opacity="1.000000" fill-rule="evenodd"/>
</svg>
